<svg width="29" height="20" viewBox="0 0 29 20" fill="none" xmlns="http://www.w3.org/2000/svg">
<path d="M28.4 3.12C28.06 1.88 27.09 0.92 25.85 0.6C23.62 -1.19209e-07 14.68 0 14.68 0C14.68 0 5.75 -1.19209e-07 3.52 0.6C2.29 0.93 1.33 1.89 1 3.12C0.59 5.39 0.39 7.69 0.4 10C0.39 12.31 0.59 14.61 1 16.88C1.33 18.11 2.29 19.07 3.52 19.4C5.75 20 14.68 20 14.68 20C14.68 20 23.61 20 25.84 19.4C27.08 19.08 28.06 18.12 28.4 16.88C28.81 14.61 29.01 12.31 29 10C29.01 7.69 28.81 5.39 28.4 3.12Z" fill="#FF0000"/>
<path d="M11.83 14.29L19.25 10L11.83 5.71002V14.29Z" fill="white"/>
</svg>
